HIERARCHY
ROOT reference
{
  OFFSET 0 0 0
  CHANNELS 6 Xposition Yposition Zposition Zrotation Xrotation Yrotation
  JOINT Hips
  {
    OFFSET 387.421 88.6843 214.036
    CHANNELS 3 Zrotation Xrotation Yrotation
    JOINT RightUpLeg
    {
      OFFSET -9.26407 -1.54033 -0.0169218
      CHANNELS 3 Zrotation Xrotation Yrotation
      JOINT RightLeg
      {
        OFFSET 0.0262756 -41.889 0.0389421
        CHANNELS 3 Zrotation Xrotation Yrotation
        JOINT RightFoot
        {
          OFFSET -0.025595 -42.7244 0.117519
          CHANNELS 3 Zrotation Xrotation Yrotation
          End Site
          {
            OFFSET 0 -7.69 17.5
          }
        }
      }
    }
    JOINT LeftUpLeg
    {
      OFFSET 9.28488 -1.63184 0.00456132
      CHANNELS 3 Zrotation Xrotation Yrotation
      JOINT LeftLeg
      {
        OFFSET -0.00133996 -41.8929 0.0117795
        CHANNELS 3 Zrotation Xrotation Yrotation
        JOINT LeftFoot
        {
          OFFSET 0.253805 -40.8902 0.809143
          CHANNELS 3 Zrotation Xrotation Yrotation
          End Site
          {
            OFFSET 0 -7.69 17.5
          }
        }
      }
    }
    JOINT Spine
    {
      OFFSET 0.04218 14.2944 0.0529257
      CHANNELS 3 Zrotation Xrotation Yrotation
      JOINT Spine1
      {
        OFFSET 0.022284 9.72228 0.00997239
        CHANNELS 3 Zrotation Xrotation Yrotation
        JOINT Spine2
        {
          OFFSET 0.0397412 10.1199 -0.0103674
          CHANNELS 3 Zrotation Xrotation Yrotation
          JOINT Spine3
          {
            OFFSET 0.0389473 9.71765 -0.00772733
            CHANNELS 3 Zrotation Xrotation Yrotation
            JOINT Neck
            {
              OFFSET 0.0437972 10.3765 0.0320322
              CHANNELS 3 Zrotation Xrotation Yrotation
              JOINT Head
              {
                OFFSET 0.0431994 9.46781 0.0291763
                CHANNELS 3 Zrotation Xrotation Yrotation
                End Site
                {
                  OFFSET 0 15.95 0
                }
              }
            }
            JOINT RightShoulder
            {
              OFFSET -3.17206 6.93005 0.0018626
              CHANNELS 3 Zrotation Xrotation Yrotation
              JOINT RightArm
              {
                OFFSET -12.781 0.0116363 0.0199633
                CHANNELS 3 Zrotation Xrotation Yrotation
                JOINT RightForeArm
                {
                  OFFSET -26.5135 -0.0113607 0.0486864
                  CHANNELS 3 Zrotation Xrotation Yrotation
                  JOINT RightHand
                  {
                    OFFSET -25.9857 -0.0984063 0.163753
                    CHANNELS 3 Zrotation Xrotation Yrotation
                    JOINT RightHandThumb1
                    {
                      OFFSET -2.48905 0.190105 3.12053
                      CHANNELS 3 Zrotation Xrotation Yrotation
                      JOINT RightHandThumb2
                      {
                        OFFSET -3.68274 0 0
                        CHANNELS 3 Zrotation Xrotation Yrotation
                        JOINT RightHandThumb3
                        {
                          OFFSET -2.55832 0 0
                          CHANNELS 3 Zrotation Xrotation Yrotation
                          End Site
                          {
                            OFFSET -2.194 0 0
                          }
                        }
                      }
                    }
                    JOINT RightInHandIndex
                    {
                      OFFSET -3.22368 0.508421 1.97842
                      CHANNELS 3 Zrotation Xrotation Yrotation
                      JOINT RightHandIndex1
                      {
                        OFFSET -5.21684 -0.091368 0.999158
                        CHANNELS 3 Zrotation Xrotation Yrotation
                        JOINT RightHandIndex2
                        {
                          OFFSET -3.61937 0 0
                          CHANNELS 3 Zrotation Xrotation Yrotation
                          JOINT RightHandIndex3
                          {
                            OFFSET -2.0521 0 0
                            CHANNELS 3 Zrotation Xrotation Yrotation
                            End Site
                            {
                              OFFSET -1.805 0 0
                            }
                          }
                        }
                      }
                    }
                    JOINT RightInHandMiddle
                    {
                      OFFSET -3.38211 0.517263 0.756737
                      CHANNELS 3 Zrotation Xrotation Yrotation
                      JOINT RightHandMiddle1
                      {
                        OFFSET -5.17411 -0.084 0.313895
                        CHANNELS 3 Zrotation Xrotation Yrotation
                        JOINT RightHandMiddle2
                        {
                          OFFSET -3.94947 0 0
                          CHANNELS 3 Zrotation Xrotation Yrotation
                          JOINT RightHandMiddle3
                          {
                            OFFSET -2.47579 0 0
                            CHANNELS 3 Zrotation Xrotation Yrotation
                            End Site
                            {
                              OFFSET -1.975 0 0
                            }
                          }
                        }
                      }
                    }
                    JOINT RightInHandRing
                    {
                      OFFSET -3.36516 0.537895 -0.128947
                      CHANNELS 3 Zrotation Xrotation Yrotation
                      JOINT RightHandRing1
                      {
                        OFFSET -4.63474 -0.022105 -0.478947
                        CHANNELS 3 Zrotation Xrotation Yrotation
                        JOINT RightHandRing2
                        {
                          OFFSET -3.44238 0 0
                          CHANNELS 3 Zrotation Xrotation Yrotation
                          JOINT RightHandRing3
                          {
                            OFFSET -2.3881 0 0
                            CHANNELS 3 Zrotation Xrotation Yrotation
                            End Site
                            {
                              OFFSET -1.857 0 0
                            }
                          }
                        }
                      }
                    }
                    JOINT RightInHandPinky
                    {
                      OFFSET -3.16105 0.469368 -1.20179
                      CHANNELS 3 Zrotation Xrotation Yrotation
                      JOINT RightHandPinky1
                      {
                        OFFSET -4.14105 -0.022105 -1.09053
                        CHANNELS 3 Zrotation Xrotation Yrotation
                        JOINT RightHandPinky2
                        {
                          OFFSET -2.75653 0 0
                          CHANNELS 3 Zrotation Xrotation Yrotation
                          JOINT RightHandPinky3
                          {
                            OFFSET -1.74189 0 0
                            CHANNELS 3 Zrotation Xrotation Yrotation
                            End Site
                            {
                              OFFSET -1.645 0 0
                            }
                          }
                        }
                      }
                    }
                  }
                }
              }
            }
            JOINT LeftShoulder
            {
              OFFSET 3.23848 6.90919 -0.0119143
              CHANNELS 3 Zrotation Xrotation Yrotation
              JOINT LeftArm
              {
                OFFSET 12.8241 -0.0554782 -0.0520121
                CHANNELS 3 Zrotation Xrotation Yrotation
                JOINT LeftForeArm
                {
                  OFFSET 26.4865 -0.0658343 -0.0244543
                  CHANNELS 3 Zrotation Xrotation Yrotation
                  JOINT LeftHand
                  {
                    OFFSET 25.985 -0.0475988 -0.0124738
                    CHANNELS 3 Zrotation Xrotation Yrotation
                    JOINT LeftHandThumb1
                    {
                      OFFSET 2.48905 0.190105 3.12053
                      CHANNELS 3 Zrotation Xrotation Yrotation
                      JOINT LeftHandThumb2
                      {
                        OFFSET 3.68274 0 0
                        CHANNELS 3 Zrotation Xrotation Yrotation
                        JOINT LeftHandThumb3
                        {
                          OFFSET 2.55832 0 0
                          CHANNELS 3 Zrotation Xrotation Yrotation
                          End Site
                          {
                            OFFSET 2.194 0 0
                          }
                        }
                      }
                    }
                    JOINT LeftInHandIndex
                    {
                      OFFSET 3.22368 0.508421 1.97842
                      CHANNELS 3 Zrotation Xrotation Yrotation
                      JOINT LeftHandIndex1
                      {
                        OFFSET 5.21684 -0.091368 0.999158
                        CHANNELS 3 Zrotation Xrotation Yrotation
                        JOINT LeftHandIndex2
                        {
                          OFFSET 3.61937 0 0
                          CHANNELS 3 Zrotation Xrotation Yrotation
                          JOINT LeftHandIndex3
                          {
                            OFFSET 2.0521 0 0
                            CHANNELS 3 Zrotation Xrotation Yrotation
                            End Site
                            {
                              OFFSET 1.805 0 0
                            }
                          }
                        }
                      }
                    }
                    JOINT LeftInHandMiddle
                    {
                      OFFSET 3.38211 0.517263 0.756737
                      CHANNELS 3 Zrotation Xrotation Yrotation
                      JOINT LeftHandMiddle1
                      {
                        OFFSET 5.17411 -0.084 0.313895
                        CHANNELS 3 Zrotation Xrotation Yrotation
                        JOINT LeftHandMiddle2
                        {
                          OFFSET 3.94947 0 0
                          CHANNELS 3 Zrotation Xrotation Yrotation
                          JOINT LeftHandMiddle3
                          {
                            OFFSET 2.47579 0 0
                            CHANNELS 3 Zrotation Xrotation Yrotation
                            End Site
                            {
                              OFFSET 1.975 0 0
                            }
                          }
                        }
                      }
                    }
                    JOINT LeftInHandRing
                    {
                      OFFSET 3.36516 0.537895 -0.128947
                      CHANNELS 3 Zrotation Xrotation Yrotation
                      JOINT LeftHandRing1
                      {
                        OFFSET 4.63474 -0.022105 -0.478947
                        CHANNELS 3 Zrotation Xrotation Yrotation
                        JOINT LeftHandRing2
                        {
                          OFFSET 3.44238 0 0
                          CHANNELS 3 Zrotation Xrotation Yrotation
                          JOINT LeftHandRing3
                          {
                            OFFSET 2.3881 0 0
                            CHANNELS 3 Zrotation Xrotation Yrotation
                            End Site
                            {
                              OFFSET 1.857 0 0
                            }
                          }
                        }
                      }
                    }
                    JOINT LeftInHandPinky
                    {
                      OFFSET 3.16105 0.469368 -1.20179
                      CHANNELS 3 Zrotation Xrotation Yrotation
                      JOINT LeftHandPinky1
                      {
                        OFFSET 4.14105 -0.022105 -1.09053
                        CHANNELS 3 Zrotation Xrotation Yrotation
                        JOINT LeftHandPinky2
                        {
                          OFFSET 2.75653 0 0
                          CHANNELS 3 Zrotation Xrotation Yrotation
                          JOINT LeftHandPinky3
                          {
                            OFFSET 1.74189 0 0
                            CHANNELS 3 Zrotation Xrotation Yrotation
                            End Site
                            {
                              OFFSET 1.645 0 0
                            }
                          }
                        }
                      }
                    }
                  }
                }
              }
            }
          }
        }
      }
    }
  }
}
MOTION
Frames: 2
Frame Time: 0.00833333
1.050000000000000000e+03 0.000000000000000000e+00 0.000000000000000000e+00 0.000000000000000000e+00 0.000000000000000000e+00 0.000000000000000000e+00 3.500134666893227831e+01 1.115722528397338209e-01 -1.345112324712409020e+02 2.142696098341489019e+01 -5.968368316046441180e+01 2.484880335808150420e+01 -7.423064186684563026e+00 2.021044588236481943e+01 -4.152569015733732272e+00 7.123042258216494282e+00 2.810664304027490790e+00 4.837357412512420041e+01 3.704728302010394714e+01 -3.561838499571624794e+01 2.835879122791330786e+01 -2.119864211129098663e+01 4.360451399731861954e+01 2.709930559921888715e+01 -4.432331193012357673e+00 -2.556515385896905812e+01 8.048908830399231107e+00 -9.876918650561915314e+00 4.322055328908625427e+00 -3.060696745604559510e+00 -2.104236945827981042e+00 1.127764013761832107e+00 -9.064656122216439016e-01 -3.643949729072181398e+00 1.832954336117853300e+00 -9.770355905657446272e-01 -7.553753904047229017e-01 -2.786037839119835380e-01 2.110417512420642350e+00 -9.486747987550547823e-01 -1.614273311561692958e+00 2.670540838220844648e+01 -1.362039429681375502e+01 -1.445580288236176791e+00 2.677989409505425300e+01 1.511428069252376050e+00 -1.152763416526196849e+00 1.202358004560734273e+01 4.242934439698981919e+01 -5.155406777235597815e+01 1.001462889300086090e+00 6.869944521192820730e+01 -1.435368417191246060e+01 9.841117002845581396e+01 2.552458800516475534e+01 -2.219073798515741913e+01 -1.202459394827763539e+01 2.818400000000000105e+01 1.072940000000000005e+01 1.915919999999999845e+01 -5.925933263653953067e-15 2.720654397659032919e-15 -1.000000000000000000e+01 -1.534346230504011656e-14 -7.048153294860995760e-15 -1.000000000000000000e+01 2.850826783095130874e-15 -3.895376206708980866e-15 -6.116478485972618185e-16 1.998179999999999978e+01 8.718970000000000331e-01 2.396399999999999864e+00 2.400000000000000000e+01 -1.580740224566371368e-14 -2.324823910811041805e-14 2.000000000000000000e+01 -7.397935474324265389e-15 -5.515617918951275867e-14 2.850826783095130874e-15 -3.895376206708980866e-15 -6.116478485972618185e-16 2.000000000000000000e+01 -2.140909503394171079e-15 1.271517364466303375e-14 2.400000000000000000e+01 -5.711619553653478717e-15 -4.005308026790904328e-16 2.000000000000000000e+01 -3.351741574704397274e-15 -3.558068258389269891e-14 2.850826783095130874e-15 -3.895376206708980866e-15 -6.116478485972618185e-16 1.997479999999999833e+01 -1.025649999999999951e+00 -2.819380000000000219e+00 2.400000000000000000e+01 -1.497000049666865755e-14 -5.551636965425752189e-14 2.000000000000000000e+01 -7.584249021177028895e-15 -2.989262516217819015e-14 2.850826783095130874e-15 -3.895376206708980866e-15 -6.116478485972618185e-16 1.978150000000000119e+01 -3.009479999999999933e+00 -8.305149999999999366e+00 2.400000000000000000e+01 -7.340876876495031095e-15 -2.735124652357353468e-14 2.000000000000000000e+01 -1.918731977290882795e-15 -1.099206917754950980e-14 1.040844206795647864e+01 -2.026592878114501417e+01 -4.815706325284178035e+01 -1.664771506889022490e+01 3.784574274042422104e+01 -1.091263170130194027e+02 2.514573666274629105e+01 -1.699124027229798628e+01 -7.815605374703245900e+00 -2.395112836823965097e+01 -2.660420862197065617e+01 -2.612023638904781286e-01 -2.818400000000000105e+01 1.072940000000000005e+01 -1.915919999999999845e+01 1.102194002476607294e-14 6.917830809581409589e-15 1.000000000000000000e+01 1.450265161917421133e-14 -2.656782835934103249e-15 1.000000000000000000e+01 8.635136638114048684e-16 5.130551222301474369e-15 -6.284905184138140945e-17 -1.998179999999999978e+01 8.718970000000000331e-01 -2.396399999999999864e+00 -2.400000000000000000e+01 -8.482563107253429059e-15 4.688201562238697764e-15 -2.000000000000000000e+01 -2.923070528911549336e-15 2.068850679954966966e-14 8.635136638114048684e-16 5.130551222301474369e-15 -6.284905184138140945e-17 -2.000000000000000000e+01 3.197985413246505151e-15 3.359066886388641850e-15 -2.400000000000000000e+01 3.754289223280641225e-15 1.245339162361060681e-14 -2.000000000000000000e+01 -1.770539704002499414e-15 2.300057907326104812e-14 8.635136638114048684e-16 5.130551222301474369e-15 -6.284905184138140945e-17 -1.997479999999999833e+01 -1.025649999999999951e+00 2.819380000000000219e+00 -2.400000000000000000e+01 3.730666773775024960e-16 1.188986349986524171e-14 -2.000000000000000000e+01 -5.882370823913310204e-15 1.906066951177134678e-14 8.635136638114048684e-16 5.130551222301474369e-15 -6.284905184138140945e-17 -1.978150000000000119e+01 -3.009479999999999933e+00 8.305149999999999366e+00 -2.400000000000000000e+01 9.803755602412758473e-15 1.804993422992965910e-14 -2.000000000000000000e+01 -1.380402365899882305e-15 -2.817909417089887166e-15
1.050000000000000000e+03 0.000000000000000000e+00 0.000000000000000000e+00 0.000000000000000000e+00 0.000000000000000000e+00 0.000000000000000000e+00 3.499942520573940641e+01 1.352743516009164981e-01 -1.345290310176776529e+02 2.144992946722929972e+01 -5.969161386237340139e+01 2.484936513197954611e+01 -7.417667097799353293e+00 2.022221314545243231e+01 -4.157172878861540077e+00 7.125464744998367905e+00 2.799119613419280839e+00 4.837302893034429019e+01 3.705443758874856996e+01 -3.563121598467016327e+01 2.834563294441363368e+01 -2.119214957434084923e+01 4.361850630590474509e+01 2.709982773822339652e+01 -4.428589066013556064e+00 -2.556369728319845791e+01 8.057548769629462981e+00 -9.854170389658523987e+00 4.313965580451219139e+00 -3.112230301704542512e+00 -2.099249643305402646e+00 1.126078884608765263e+00 -9.190777014745306062e-01 -3.635416522131210026e+00 1.830656733654513868e+00 -9.976646034630611837e-01 -7.556260396117105982e-01 -2.783741153091127130e-01 2.113084007489547389e+00 -9.518726855758694594e-01 -1.614488142551280259e+00 2.673337869286006097e+01 -1.362249259814275248e+01 -1.444651697359719433e+00 2.680861107982362768e+01 1.517558945508225676e+00 -1.154112683457244160e+00 1.198613190057640665e+01 4.244329082644396323e+01 -5.158081526016349017e+01 9.444035093032354666e-01 6.867412452347542740e+01 -1.434247239667395135e+01 9.845770360398277887e+01 2.550343763245534845e+01 -2.220397277320277851e+01 -1.196994022315499251e+01 2.818400000000000105e+01 1.072940000000000005e+01 1.915919999999999845e+01 -5.913500707716923948e-15 2.719420196113017149e-15 -1.000000000000000000e+01 -1.533988929065267215e-14 -7.047024076620812480e-15 -1.000000000000000000e+01 2.842851065765258820e-15 -3.900394526258267295e-15 -6.186143691909858779e-16 1.998179999999999978e+01 8.718970000000000331e-01 2.396399999999999864e+00 2.400000000000000000e+01 -1.579013329729114578e-14 -2.316587135091287698e-14 2.000000000000000000e+01 -7.404014535902218004e-15 -5.514861165216053806e-14 2.842851065765258820e-15 -3.900394526258267295e-15 -6.186143691909858779e-16 2.000000000000000000e+01 -2.139632132735213504e-15 1.271109764880104486e-14 2.400000000000000000e+01 -5.694535007363682614e-15 -3.468799017003461424e-16 2.000000000000000000e+01 -3.353712088998018300e-15 -3.558106322653917036e-14 2.842851065765258820e-15 -3.900394526258267295e-15 -6.186143691909858779e-16 1.997479999999999833e+01 -1.025649999999999951e+00 -2.819380000000000219e+00 2.400000000000000000e+01 -1.492659876659349769e-14 -5.531212014482069107e-14 2.000000000000000000e+01 -7.581333634145461503e-15 -2.988915450918238839e-14 2.842851065765258820e-15 -3.900394526258267295e-15 -6.186143691909858779e-16 1.978150000000000119e+01 -3.009479999999999933e+00 -8.305149999999999366e+00 2.400000000000000000e+01 -7.312789730676618917e-15 -2.725732163730718054e-14 2.000000000000000000e+01 -1.918661938020678517e-15 -1.098708645316974081e-14 1.040827054452016753e+01 -2.026948942730340519e+01 -4.816988725582363884e+01 -1.661691239515851848e+01 3.786314461372575124e+01 -1.091756620570179876e+02 2.520211563659313825e+01 -1.695191573670514629e+01 -7.729431355309372975e+00 -2.398177755485068019e+01 -2.657653687212984650e+01 -2.686577495946353977e-01 -2.818400000000000105e+01 1.072940000000000005e+01 -1.915919999999999845e+01 1.101887704642200642e-14 6.915798873461140919e-15 1.000000000000000000e+01 1.448939334895650460e-14 -2.662078707465154333e-15 1.000000000000000000e+01 8.623671780340915352e-16 5.127687150290757588e-15 -6.348695146494776326e-17 -1.998179999999999978e+01 8.718970000000000331e-01 -2.396399999999999864e+00 -2.400000000000000000e+01 -8.465827357733848183e-15 4.664412566468472394e-15 -2.000000000000000000e+01 -2.918706520520926159e-15 2.066532449368729629e-14 8.623671780340915352e-16 5.127687150290757588e-15 -6.348695146494776326e-17 -2.000000000000000000e+01 3.202511675139476270e-15 3.353362445596250336e-15 -2.400000000000000000e+01 3.760982337985593390e-15 1.242569922344363984e-14 -2.000000000000000000e+01 -1.771134663445256126e-15 2.298089134376466585e-14 8.623671780340915352e-16 5.127687150290757588e-15 -6.348695146494776326e-17 -1.997479999999999833e+01 -1.025649999999999951e+00 2.819380000000000219e+00 -2.400000000000000000e+01 3.744886205172830639e-16 1.186599047925907982e-14 -2.000000000000000000e+01 -5.870127940965950092e-15 1.904318804541353634e-14 8.623671780340915352e-16 5.127687150290757588e-15 -6.348695146494776326e-17 -1.978150000000000119e+01 -3.009479999999999933e+00 8.305149999999999366e+00 -2.400000000000000000e+01 9.799208749397507840e-15 1.803674197526651364e-14 -2.000000000000000000e+01 -1.377352231240320459e-15 -2.828877368614581976e-15
